<svg xmlns="http://www.w3.org/2000/svg" viewBox="0 0 220 360">
  <path d="M110 0v72" fill="none" stroke="#257b4c" stroke-width="6" stroke-dasharray="8 9"/>
  <circle cx="110" cy="140" r="70" fill="#fff1ca" stroke="#ed6a3a" stroke-width="8"/>
  <circle cx="110" cy="140" r="56" fill="#f6b51b" stroke="#257b4c" stroke-width="6"/>
  <g fill="#df2d71" stroke="#9e174c" stroke-width="3" transform="translate(110 140)">
    <ellipse rx="16" ry="42" transform="translate(0 -25)"/>
    <ellipse rx="16" ry="42" transform="rotate(60) translate(0 -25)"/>
    <ellipse rx="16" ry="42" transform="rotate(120) translate(0 -25)"/>
    <ellipse rx="16" ry="42" transform="rotate(180) translate(0 -25)"/>
    <ellipse rx="16" ry="42" transform="rotate(240) translate(0 -25)"/>
    <ellipse rx="16" ry="42" transform="rotate(300) translate(0 -25)"/>
    <circle r="18" fill="#2155cd"/>
  </g>
  <g fill="none" stroke="#257b4c" stroke-width="5">
    <path d="M70 196v92M110 210v110M150 196v92"/>
  </g>
  <g fill="#ed6a3a" stroke="#9e174c" stroke-width="3">
    <path d="M55 286l15 45 15-45zM95 318l15 42 15-42zM135 286l15 45 15-45z"/>
  </g>
  <g fill="#f6b51b"><circle cx="70" cy="235" r="8"/><circle cx="110" cy="250" r="8"/><circle cx="150" cy="235" r="8"/></g>
</svg>
